<svg viewBox="0 0 16 16" width="16" height="16" xmlns="http://www.w3.org/2000/svg" fill="none">
  <path d="M3.146 8.061V1.954q.013-.217.103-.415c.108-.267.319-.479.58-.59.126-.062.266-.098.407-.106h5.4l.136 5.449 2.683.036 2.684.033v7.77l-.035.21a1.1 1.1 0 0 1-.476.693 1.1 1.1 0 0 1-.407.174l-.202.034H9.125" stroke="#2A2A2A" stroke-linecap="round" stroke-linejoin="round"/>
  <path d="M5.592 10.56.974 15.277M9.67.843l5.434 5.485M.974 10.56l4.618 4.717" stroke="#2A2A2A" stroke-linecap="round" stroke-linejoin="round"/>
</svg>
