<svg width="11" height="12" viewBox="0 0 11 12" fill="none" xmlns="http://www.w3.org/2000/svg">
<path d="M4.54199 10.833C4.65266 10.9723 4.80533 11.035 4.99999 11.021C5.19466 11.007 5.36133 10.9307 5.49999 10.792C5.63866 10.6527 5.70799 10.486 5.70799 10.292C5.70799 10.0973 5.63866 9.94434 5.49999 9.83301L2.33299 6.70801H10.042C10.2087 6.70801 10.3613 6.63867 10.5 6.50001C10.6387 6.36134 10.708 6.19467 10.708 6.00001C10.708 5.80534 10.6387 5.63867 10.5 5.50001C10.3613 5.36134 10.1947 5.29201 9.99999 5.29201H2.33299L5.49999 2.12501C5.63866 2.01367 5.70133 1.86101 5.68799 1.66701C5.67399 1.47234 5.59733 1.30567 5.45799 1.16701C5.31933 1.02767 5.15266 0.958008 4.95799 0.958008C4.76399 0.958008 4.61133 1.02767 4.49999 1.16701L0.541992 5.12501C0.291992 5.37501 0.166992 5.66667 0.166992 6.00001C0.166992 6.33334 0.291992 6.62501 0.541992 6.87501L4.54199 10.833Z" fill="#363E4E"/>
</svg>
