<svg width="18" height="18" viewBox="0 0 18 18" fill="none" xmlns="http://www.w3.org/2000/svg">
<g clip-path="url(#clip0_408_2789)">
<mask id="mask0_408_2789" style="mask-type:alpha" maskUnits="userSpaceOnUse" x="0" y="0" width="18" height="18">
<path d="M6.28521 0.0717773L6.4342 0.0732243C11.3677 0.168148 17.9273 4.91565 17.9273 9.06111L17.9245 9.21264C17.737 14.2207 8.33647 19.9613 3.61681 17.2776L3.47522 17.1938C-1.14977 14.3434 -1.0892 3.32571 3.54281 0.718577L3.61533 0.678661C4.39307 0.260091 5.3049 0.0717773 6.28481 0.0717773H6.28521Z" fill="white"/>
</mask>
<g mask="url(#mask0_408_2789)">
<path fill-rule="evenodd" clip-rule="evenodd" d="M-2.2428 20.242H20.2077V-2.2085H-2.2428V20.242Z" fill="#FA994D"/>
</g>
<mask id="mask1_408_2789" style="mask-type:alpha" maskUnits="userSpaceOnUse" x="0" y="0" width="18" height="18">
<path d="M6.28499 0.369873L6.43398 0.37132C11.2678 0.464326 17.663 5.02383 17.9194 9.10727L17.9245 9.2126C17.737 14.2207 8.33651 19.9613 3.61685 17.2776L3.47527 17.1937C1.20843 15.7967 0.0671775 12.4376 0.0380859 9.0685C0.0753113 5.66415 1.24808 2.30829 3.54285 1.01667L3.61537 0.976757C4.39311 0.558194 5.30494 0.369873 6.28472 0.369873H6.28485" fill="white"/>
</mask>
<g mask="url(#mask1_408_2789)">
<path fill-rule="evenodd" clip-rule="evenodd" d="M6.2848 0.369873C5.2744 0.369873 4.33627 0.57014 3.54293 1.01667C-1.13587 3.65014 -1.1504 14.8649 3.61693 17.5757C8.38426 20.2865 17.9275 14.402 17.9275 9.35921C17.9275 5.17187 11.2344 0.370273 6.28507 0.369873C6.2848 0.369873 6.28506 0.369873 6.2848 0.369873Z" fill="url(#paint0_linear_408_2789)"/>
</g>
<mask id="mask2_408_2789" style="mask-type:alpha" maskUnits="userSpaceOnUse" x="0" y="0" width="18" height="18">
<path d="M6.28499 0.369873L6.43398 0.37132C11.2678 0.464326 17.663 5.02383 17.9194 9.10727L17.9245 9.2126C17.737 14.2207 8.33651 19.9613 3.61685 17.2776L3.47527 17.1937C1.20843 15.7967 0.0671775 12.4376 0.0380859 9.0685C0.0753113 5.66415 1.24808 2.30829 3.54285 1.01667L3.61537 0.976757C4.39311 0.558194 5.30494 0.369873 6.28472 0.369873H6.28485" fill="white"/>
</mask>
<g mask="url(#mask2_408_2789)">
<path fill-rule="evenodd" clip-rule="evenodd" d="M6.2848 0.369873C5.2744 0.369873 4.33627 0.57014 3.54293 1.01667C-1.13587 3.65014 -1.1504 14.8649 3.61693 17.5757C8.38426 20.2865 17.9275 14.402 17.9275 9.35921C17.9275 5.17187 11.2344 0.370273 6.28507 0.369873C6.2848 0.369873 6.28506 0.369873 6.2848 0.369873Z" fill="url(#paint1_linear_408_2789)"/>
</g>
<mask id="mask3_408_2789" style="mask-type:alpha" maskUnits="userSpaceOnUse" x="0" y="8" width="18" height="10">
<path d="M3.61686 17.2776C8.38419 19.9884 17.9274 14.1039 17.9274 9.06109C17.9274 9.01175 17.9266 8.96215 17.9247 8.91269C17.7394 13.9212 8.33699 19.6635 3.61686 16.9795C1.25979 15.6392 0.0716572 12.2202 0.0383239 8.78735C0.0039239 12.3187 1.19152 15.8986 3.61686 17.2776Z" fill="white"/>
</mask>
<g mask="url(#mask3_408_2789)">
<path fill-rule="evenodd" clip-rule="evenodd" d="M-2.2428 20.242H20.2077V6.50708H-2.2428V20.242Z" fill="#DB466C"/>
</g>
<mask id="mask4_408_2789" style="mask-type:alpha" maskUnits="userSpaceOnUse" x="3" y="6" width="5" height="6">
<path d="M3.20691 8.8541C3.20691 10.2238 4.16118 11.2557 5.61758 11.2557C6.54904 11.2557 7.29784 10.8084 7.63104 10.0641C7.69051 9.93624 7.60824 9.84504 7.45758 9.84504L6.87318 9.84944C6.76358 9.84944 6.69518 9.89517 6.62211 9.97277C6.42584 10.2284 6.06504 10.411 5.63131 10.411C4.93544 10.411 4.37864 10.027 4.22864 9.2789H7.63104C7.75438 9.2789 7.83651 9.21944 7.85024 9.08704C7.85478 9.01397 7.85931 8.9409 7.85931 8.8633C7.85931 7.54837 6.96451 6.45264 5.59944 6.45264C4.17024 6.45264 3.20691 7.50277 3.20691 8.8541ZM5.59491 7.3521C6.18264 7.3521 6.73798 7.68864 6.86744 8.4661H4.22491C4.35904 7.78304 4.85851 7.3521 5.59491 7.3521Z" fill="white"/>
</mask>
<g mask="url(#mask4_408_2789)">
<path fill-rule="evenodd" clip-rule="evenodd" d="M0.926636 13.5361H10.1396V4.17249H0.926636V13.5361Z" fill="white"/>
</g>
<mask id="mask5_408_2789" style="mask-type:alpha" maskUnits="userSpaceOnUse" x="8" y="6" width="6" height="8">
<path d="M8.35815 8.8085C8.35815 10.1189 9.38549 11.1642 10.6274 11.1642C11.36 11.1642 11.9034 10.8592 12.2483 10.3717V10.9313C12.2483 11.7212 11.7551 12.1869 10.8967 12.1869C10.2028 12.1869 9.77362 11.84 9.66402 11.4793C9.62749 11.3606 9.56815 11.2966 9.44482 11.2966H8.86495C8.73269 11.2966 8.65042 11.3697 8.65962 11.5112C8.79202 12.4928 9.81469 13.0817 10.8967 13.0817C12.0655 13.0817 13.216 12.3924 13.216 10.9313V6.77664C13.216 6.64424 13.143 6.57117 13.0107 6.57117V6.57144H12.4538C12.3212 6.57144 12.2483 6.6445 12.2483 6.7769V7.24517C11.9034 6.75784 11.36 6.45264 10.6274 6.45264C9.38549 6.45264 8.35815 7.4981 8.35815 8.8085ZM9.34455 8.80837C9.34455 7.9865 9.96535 7.37477 10.7963 7.37477C11.6272 7.37477 12.2483 7.9865 12.2483 8.80837C12.2483 9.63024 11.6272 10.242 10.7963 10.242C9.96535 10.242 9.34455 9.63024 9.34455 8.80837Z" fill="white"/>
</mask>
<g mask="url(#mask5_408_2789)">
<path fill-rule="evenodd" clip-rule="evenodd" d="M6.07788 15.3621H15.4964V4.17224H6.07788V15.3621Z" fill="white"/>
</g>
</g>
<defs>
<linearGradient id="paint0_linear_408_2789" x1="0.0376255" y1="0.36989" x2="0.0376255" y2="467.372" gradientUnits="userSpaceOnUse">
<stop stop-color="#FFA246"/>
<stop offset="1" stop-color="#E14B53"/>
</linearGradient>
<linearGradient id="paint1_linear_408_2789" x1="8.9826" y1="18.2598" x2="8.9826" y2="0.36989" gradientUnits="userSpaceOnUse">
<stop stop-color="#FFA246"/>
<stop offset="1" stop-color="#E14B53"/>
</linearGradient>
<clipPath id="clip0_408_2789">
<rect width="18" height="18" fill="white"/>
</clipPath>
</defs>
</svg>
