<svg width="12" height="12" viewBox="0 0 12 12" fill="none" xmlns="http://www.w3.org/2000/svg">
<path  d="M10.2 1H1.8C1.32261 1 0.864773 1.18964 0.527208 1.52721C0.189642 1.86477 0 2.32261 0 2.8V8.8C0 9.27739 0.189642 9.73523 0.527208 10.0728C0.864773 10.4104 1.32261 10.6 1.8 10.6H10.2C10.6774 10.6 11.1352 10.4104 11.4728 10.0728C11.8104 9.73523 12 9.27739 12 8.8V2.8C12 2.32261 11.8104 1.86477 11.4728 1.52721C11.1352 1.18964 10.6774 1 10.2 1ZM1.8 2.2H10.2C10.3591 2.2 10.5117 2.26321 10.6243 2.37574C10.7368 2.48826 10.8 2.64087 10.8 2.8L6 5.728L1.2 2.8C1.2 2.64087 1.26321 2.48826 1.37574 2.37574C1.48826 2.26321 1.64087 2.2 1.8 2.2ZM10.8 8.8C10.8 8.95913 10.7368 9.11174 10.6243 9.22427C10.5117 9.33679 10.3591 9.4 10.2 9.4H1.8C1.64087 9.4 1.48826 9.33679 1.37574 9.22427C1.26321 9.11174 1.2 8.95913 1.2 8.8V4.168L5.688 6.91C5.77921 6.96266 5.88268 6.99039 5.988 6.99039C6.09332 6.99039 6.19679 6.96266 6.288 6.91L10.8 4.168V8.8Z" fill="#363E4E"/>
</svg>
