<svg width="94" height="125" viewBox="0 0 94 125" fill="none" xmlns="http://www.w3.org/2000/svg">
    <g opacity=".7">
        <path d="M12 123.114h70c5.523 0 10-4.477 10-10V36.369a10 10 0 0 0-2.944-7.086L64.584 4.913A10 10 0 0 0 57.526 2H12C6.477 2 2 6.477 2 12v101.114c0 5.523 4.477 10 10 10z" fill="#fff" stroke="#363E4E" stroke-width="3" stroke-linecap="round" stroke-linejoin="round"/>
        <path d="M62 3v19c0 5.523 4.477 10 10 10h19M56.807 81.039c0-4.154-4.261-7.5-9.519-7.5-5.257 0-9.519 3.346-9.519 7.5" stroke="#363E4E" stroke-width="3" stroke-linecap="round" stroke-linejoin="round"/>
        <path d="M37.538 58.422a1.442 1.442 0 1 1 2.04 2.04l-6.117 6.116a1.441 1.441 0 1 1-2.039-2.04l6.116-6.116z" fill="#363E4E"/>
        <path d="M31.422 60.461a1.442 1.442 0 1 1 2.039-2.039l6.117 6.117a1.442 1.442 0 0 1-2.04 2.039l-6.116-6.117zM60.538 58.422a1.442 1.442 0 1 1 2.04 2.04l-6.117 6.116a1.441 1.441 0 1 1-2.039-2.04l6.117-6.116z" fill="#363E4E"/>
        <path d="M54.422 60.461a1.442 1.442 0 1 1 2.039-2.039l6.117 6.117a1.442 1.442 0 0 1-2.04 2.039l-6.116-6.117z" fill="#363E4E"/>
    </g>
</svg>
