<svg width="14" height="14" viewBox="0 0 14 14" fill="none" xmlns="http://www.w3.org/2000/svg">
    <path fill-rule="evenodd" clip-rule="evenodd" d="M7 1.462a5.538 5.538 0 1 0 0 11.076A5.538 5.538 0 0 0 7 1.462zM.54 7a6.462 6.462 0 1 1 12.923 0A6.462 6.462 0 0 1 .539 7zM7.18 4.71a.923.923 0 0 0-1.103.905.462.462 0 0 1-.923 0 1.846 1.846 0 1 1 2.308 1.788v.52a.462.462 0 0 1-.924 0V7c0-.255.207-.462.462-.462a.923.923 0 0 0 .18-1.828zm-.565 4.714A.692.692 0 0 1 7 9.308a.702.702 0 0 1 .692.692.692.692 0 1 1-1.077-.576z" fill="#2A2A2A"/>
</svg>

