<svg xmlns="http://www.w3.org/2000/svg" width="24" height="24" viewBox="0 0 24 24" fill="none">
  <path d="M17.46 21C19.2242 21 20.1062 21 20.7801 20.673C21.3728 20.3854 21.8547 19.9265 22.1567 19.362C22.5 18.7202 22.5 17.8802 22.5 16.2V7.8C22.5 6.11984 22.5 5.27977 22.1567 4.63803C21.8547 4.07354 21.3728 3.6146 20.7801 3.32698C20.1062 3 19.2242 3 17.46 3L6.54 3C4.77583 3 3.89375 3 3.21993 3.32698C2.62722 3.6146 2.14533 4.07354 1.84333 4.63803C1.5 5.27976 1.5 6.11984 1.5 7.8L1.5 16.2C1.5 17.8802 1.5 18.7202 1.84333 19.362C2.14533 19.9265 2.62722 20.3854 3.21993 20.673C3.89375 21 4.77583 21 6.54 21H17.46Z" stroke="#363E4E" stroke-width="1.5" stroke-linecap="round" stroke-linejoin="round"/>
  <path d="M9.75 9.77062C9.75 9.41999 9.75 9.24467 9.82964 9.1468C9.89904 9.0615 10.0053 9.00814 10.1208 9.00055C10.2533 8.99184 10.4136 9.08664 10.7342 9.27625L14.5032 11.5056C14.7814 11.6702 14.9205 11.7524 14.9685 11.857C15.0105 11.9484 15.0105 12.0516 14.9685 12.143C14.9205 12.2476 14.7814 12.3298 14.5032 12.4944L10.7342 14.7237C10.4136 14.9134 10.2533 15.0082 10.1208 14.9994C10.0053 14.9919 9.89904 14.9385 9.82964 14.8532C9.75 14.7553 9.75 14.58 9.75 14.2294V9.77062Z" stroke="#363E4E" stroke-width="1.5" stroke-linecap="round" stroke-linejoin="round"/>
</svg>